<?xml version="1.0" encoding="UTF-8" standalone="no"?>
<svg
   width="950.5"
   height="621.22833"
   viewBox="0 0 950.5 621.22833"
   role="img"
   artist="Katerina Limpitsouni"
   source="https://undraw.co/"
   version="1.1"
   id="svg26"
   sodipodi:docname="select-player.svg"
   inkscape:version="1.3.2 (091e20e, 2023-11-25)"
   xmlns:inkscape="http://www.inkscape.org/namespaces/inkscape"
   xmlns:sodipodi="http://sodipodi.sourceforge.net/DTD/sodipodi-0.dtd"
   xmlns="http://www.w3.org/2000/svg"
   xmlns:svg="http://www.w3.org/2000/svg">
  <defs
     id="defs26" />
  <sodipodi:namedview
     id="namedview26"
     pagecolor="#ffffff"
     bordercolor="#999999"
     borderopacity="1"
     inkscape:showpageshadow="2"
     inkscape:pageopacity="0"
     inkscape:pagecheckerboard="0"
     inkscape:deskcolor="#d1d1d1"
     showgrid="false"
     inkscape:zoom="0.79552982"
     inkscape:cx="457.5567"
     inkscape:cy="331.85431"
     inkscape:window-width="1512"
     inkscape:window-height="857"
     inkscape:window-x="0"
     inkscape:window-y="38"
     inkscape:window-maximized="1"
     inkscape:current-layer="svg26" />
  <text
     xml:space="preserve"
     style="font-style:normal;font-variant:normal;font-weight:normal;font-stretch:normal;font-size:40px;font-family:Geist;-inkscape-font-specification:'Geist, @wght=700';font-variant-ligatures:normal;font-variant-caps:normal;font-variant-numeric:normal;font-variant-east-asian:normal;font-variation-settings:'wght' 700;letter-spacing:0.565252px;fill:#6a5d7b;fill-opacity:1;stroke:#000000;stroke-width:0.07691"
     x="46.109047"
     y="543.54565"
     id="text26-2"
     inkscape:label="text26-2"><tspan
       sodipodi:role="line"
       id="tspan26-9"
       x="46.109047"
       y="543.54565"
       style="font-style:normal;font-variant:normal;font-weight:normal;font-stretch:normal;font-size:40px;font-family:Geist;-inkscape-font-specification:'Geist, @wght=700';font-variant-ligatures:normal;font-variant-caps:normal;font-variant-numeric:normal;font-variant-east-asian:normal;font-variation-settings:'wght' 700;fill:#6a5d7b;fill-opacity:1;stroke-width:0.07691">house</tspan></text>
  <path
     d="M431.63237,369.68518H302.17081a6.92409,6.92409,0,0,1-6.916-6.91594V223.41046a6.92409,6.92409,0,0,1,6.916-6.91594H431.63237a6.92408,6.92408,0,0,1,6.91594,6.91594V362.76924A6.92408,6.92408,0,0,1,431.63237,369.68518ZM302.17081,219.2609a4.1541,4.1541,0,0,0-4.14957,4.14956V362.76924a4.1541,4.1541,0,0,0,4.14957,4.14956H431.63237a4.15411,4.15411,0,0,0,4.14957-4.14956V223.41046a4.15411,4.15411,0,0,0-4.14957-4.14956Z"
     transform="translate(-124.75 -139.38583)"
     fill="#e6e6e6"
     id="path1" />
  <path
     d="M 304.58256,622.47056 H 175.121 a 6.92409,6.92409 0 0 1 -6.916,-6.91594 V 476.19584 a 6.92409,6.92409 0 0 1 6.916,-6.91594 h 129.46156 a 6.92408,6.92408 0 0 1 6.91594,6.91594 v 139.35878 a 6.92408,6.92408 0 0 1 -6.91594,6.91594 z M 175.121,472.04628 a 4.1541,4.1541 0 0 0 -4.14957,4.14956 v 139.35878 a 4.1541,4.1541 0 0 0 4.14957,4.14956 h 129.46156 a 4.15411,4.15411 0 0 0 4.14957,-4.14956 V 476.19584 a 4.15411,4.15411 0 0 0 -4.14957,-4.14956 z"
     fill="#e6e6e6"
     id="path1-0" />
  <path
     d="M 530.61793,430.16256 H 401.15637 a 6.92409,6.92409 0 0 1 -6.916,-6.91594 V 283.88784 a 6.92409,6.92409 0 0 1 6.916,-6.91594 h 129.46156 a 6.92408,6.92408 0 0 1 6.91594,6.91594 v 139.35878 a 6.92408,6.92408 0 0 1 -6.91594,6.91594 z M 401.15637,279.73828 a 4.1541,4.1541 0 0 0 -4.14957,4.14956 v 139.35878 a 4.1541,4.1541 0 0 0 4.14957,4.14956 h 129.46156 a 4.15411,4.15411 0 0 0 4.14957,-4.14956 V 283.88784 a 4.15411,4.15411 0 0 0 -4.14957,-4.14956 z"
     fill="#e6e6e6"
     id="path1-0-9" />
  <path
     d="M 527.7272,623.51532 H 398.26564 a 6.92409,6.92409 0 0 1 -6.916,-6.91594 V 477.2406 a 6.92409,6.92409 0 0 1 6.916,-6.91594 H 527.7272 a 6.92408,6.92408 0 0 1 6.91594,6.91594 v 139.35878 a 6.92408,6.92408 0 0 1 -6.91594,6.91594 z M 398.26564,473.09104 a 4.1541,4.1541 0 0 0 -4.14957,4.14956 v 139.35878 a 4.1541,4.1541 0 0 0 4.14957,4.14956 H 527.7272 a 4.15411,4.15411 0 0 0 4.14957,-4.14956 V 477.2406 a 4.15411,4.15411 0 0 0 -4.14957,-4.14956 z"
     fill="#e6e6e6"
     id="path1-0-9-7" />
  <path
     d="M 306.24125,432.05018 H 176.77969 a 6.92409,6.92409 0 0 1 -6.916,-6.91594 V 285.77546 a 6.92409,6.92409 0 0 1 6.916,-6.91594 h 129.46156 a 6.92408,6.92408 0 0 1 6.91594,6.91594 v 139.35878 a 6.92408,6.92408 0 0 1 -6.91594,6.91594 z M 176.77969,281.6259 a 4.1541,4.1541 0 0 0 -4.14957,4.14956 v 139.35878 a 4.1541,4.1541 0 0 0 4.14957,4.14956 h 129.46156 a 4.15411,4.15411 0 0 0 4.14957,-4.14956 V 285.77546 a 4.15411,4.15411 0 0 0 -4.14957,-4.14956 z"
     fill="#e6e6e6"
     id="path1-0-9-3" />
  <path
     d="M656.63237,369.68518H527.17081a6.92409,6.92409,0,0,1-6.91595-6.91594V223.41046a6.92409,6.92409,0,0,1,6.91595-6.91594H656.63237a6.92408,6.92408,0,0,1,6.91594,6.91594V362.76924A6.92408,6.92408,0,0,1,656.63237,369.68518ZM527.17081,219.2609a4.1541,4.1541,0,0,0-4.14957,4.14956V362.76924a4.1541,4.1541,0,0,0,4.14957,4.14956H656.63237a4.15411,4.15411,0,0,0,4.14957-4.14956V223.41046a4.15411,4.15411,0,0,0-4.14957-4.14956Z"
     transform="translate(-124.75 -139.38583)"
     fill="#e6e6e6"
     id="path2" />
  <path
     d="M881.63237,369.68518H752.17081a6.92409,6.92409,0,0,1-6.91595-6.91594V223.41046a6.92409,6.92409,0,0,1,6.91595-6.91594H881.63237a6.92408,6.92408,0,0,1,6.91594,6.91594V362.76924A6.92408,6.92408,0,0,1,881.63237,369.68518ZM752.17081,219.2609a4.1541,4.1541,0,0,0-4.14957,4.14956V362.76924a4.1541,4.1541,0,0,0,4.14957,4.14956H881.63237a4.15411,4.15411,0,0,0,4.14957-4.14956V223.41046a4.15411,4.15411,0,0,0-4.14957-4.14956Z"
     transform="translate(-124.75 -139.38583)"
     fill="#e6e6e6"
     id="path3" />
  <path
     d="M784.90159,385.4678a1.00068,1.00068,0,0,0-1,1v8a1.00067,1.00067,0,0,0,1,1h64a1.00067,1.00067,0,0,0,1-1v-8a1.00068,1.00068,0,0,0-1-1Z"
     transform="translate(-124.75 -139.38583)"
     fill="#3f3d56"
     id="path4" />
  <path
     d="m 660.3694,444.22893 a 1.00068,1.00068 0 0 0 -1,1 v 8 a 1.00067,1.00067 0 0 0 1,1 h 64 a 1.00067,1.00067 0 0 0 1,-1 v -8 a 1.00068,1.00068 0 0 0 -1,-1 z"
     fill="#3f3d56"
     id="path4-4" />
  <path
     d="M559.90159,385.4678a1.00068,1.00068,0,0,0-1,1v8a1.00067,1.00067,0,0,0,1,1h64a1.00067,1.00067,0,0,0,1-1v-8a1.00068,1.00068,0,0,0-1-1Z"
     fill="#FDCDD8"
     id="path5"
     transform="translate(-124.75 -139.38583)" />
  <path
     d="m 436.85952,443.92716 a 1.00068,1.00068 0 0 0 -1,1 v 8 a 1.00067,1.00067 0 0 0 1,1 h 64 a 1.00067,1.00067 0 0 0 1,-1 v -8 a 1.00068,1.00068 0 0 0 -1,-1 z"
     fill="#fdcdd8"
     id="path5-2" />
  <path
     d="M334.90159,385.4678a1.00068,1.00068,0,0,0-1,1v8a1.00067,1.00067,0,0,0,1,1h64a1.00067,1.00067,0,0,0,1-1v-8a1.00068,1.00068,0,0,0-1-1Z"
     transform="translate(-124.75 -139.38583)"
     fill="#e6e6e6"
     id="path6"
     style="fill:#a5dcd0;fill-opacity:1" />
  <path
     d="m 204.20084,446.15192 a 1.00068,1.00068 0 0 0 -1,1 v 8 a 1.00067,1.00067 0 0 0 1,1 h 64 a 1.00067,1.00067 0 0 0 1,-1 v -8 a 1.00068,1.00068 0 0 0 -1,-1 z"
     fill="#e6e6e6"
     id="path6-5"
     style="fill:#a5dcd0;fill-opacity:1" />
  <path
     d="M301.75,517.11417l-3,13s1,30-7,27-6-29-6-29l7-13Z"
     transform="translate(-124.75 -139.38583)"
     fill="#ffb8b8"
     id="path7" />
  <circle
     cx="132.5"
     cy="215.22833"
     r="20"
     fill="#ffb8b8"
     id="circle7" />
  <path
     d="M241.75,360.11417l-2,29,25,3s0-24,2-27S241.75,360.11417,241.75,360.11417Z"
     transform="translate(-124.75 -139.38583)"
     fill="#ffb8b8"
     id="path8" />
  <path
     d="M297.19191,397.88014,264.7972,384.19505s-15.47946-11.9226-24.54586-3.08988l-4.069,5.82834S200.19458,400.965,200.2042,411.965l14.0481,54.98773s-7.97287,31.007,4.02887,32.99649l65.00522,5.94314s8.99038-11.00787.97813-25.00087l2.97114-33.00261Z"
     transform="translate(-124.75 -139.38583)"
     fill="#e6e6e6"
     id="path9" />
  <path
     d="M275.1928,398.89939l21.99911-1.01925s7.00175,1.99388,12.01837,20.9895,6.04374,49.99473,6.04374,49.99473l-11.951,56.01048L288.30126,522.888l5.95276-54.00523L284.22254,432.8915Z"
     transform="translate(-124.75 -139.38583)"
     fill="#e6e6e6"
     id="path10" />
  <path
     d="M212.19807,404.9545l-10.8435,3.38753s-9.14162,13.63-9.1355,20.62995-3.94751,60.00348-3.94751,60.00348l26.0376,42.97724,7.98163-21.007-16.02361-26.986,12.97113-33.01136Z"
     transform="translate(-124.75 -139.38583)"
     fill="#e6e6e6"
     id="path11" />
  <path
     d="M286.25,503.61417l-71.8968-6.32585s-7.1032,45.32585-6.1032,63.32585,2,46,2,46l-8,122,31-4,4-101,13-55,15,70,10,90,27-3-9-109S301.25,518.61417,286.25,503.61417Z"
     transform="translate(-124.75 -139.38583)"
     fill="#2f2e41"
     id="path12"
     style="fill:#2f2e41;fill-opacity:1" />
  <path
     d="M296.25,720.61417l9,3s19-5,14,8-19,11-19,11-17,13-24,3l4-21Z"
     transform="translate(-124.75 -139.38583)"
     fill="#2f2e41"
     id="path13" />
  <path
     d="M223.25,720.61417l9,3s19-5,14,8-19,11-19,11-17,13-24,3l4-21Z"
     transform="translate(-124.75 -139.38583)"
     fill="#2f2e41"
     id="path14" />
  <path
     d="M241.75,372.11417s-21-15-10-33c7.63118-12.48738,23.44411-11.49893,32.414-9.72226a15.154,15.154,0,0,1,11.086,8.72226c1.5,3.5,1.5,7-4.5,7-12,0-6,9-6,9s-8,2-6,9S241.75,372.11417,241.75,372.11417Z"
     transform="translate(-124.75 -139.38583)"
     fill="#2f2e41"
     id="path15" />
  <path
     d="M960.57123,723.33886s-22.17658,1.70589-19.90205,9.66671,19.90205,6.82356,19.90205,6.82356,13.64712-1.13726,21.03931,1.13726,15.92165,0,16.49028-3.98041-3.98041-6.82356-3.98041-6.82356l-2.84315-5.6863Z"
     transform="translate(-124.75 -139.38583)"
     fill="#2f2e41"
     id="path16" />
  <path
     d="M902.28664,545.64194,900.01212,554.74s-10.23534,21.03932,2.27452,21.03932,7.96082-19.33343,7.96082-19.33343l1.13726-9.09808Z"
     transform="translate(-124.75 -139.38583)"
     fill="#9f616a"
     id="path17" />
  <path
     d="M1012.03226,538.24975l2.27452,9.09808s10.23534,21.03932-2.27452,21.03932-7.96083-19.33343-7.96083-19.33343l-1.13726-9.09808Z"
     transform="translate(-124.75 -139.38583)"
     fill="#9f616a"
     id="path18" />
  <circle
     cx="828.14472"
     cy="219.74543"
     r="24.4511"
     fill="#9f616a"
     id="circle18" />
  <path
     d="M945.50253,377.89605s2.84315,13.0785,1.13726,19.33343,35.25507-1.13726,35.25507-1.13726-13.07849-21.608-12.50986-22.17658Z"
     transform="translate(-124.75 -139.38583)"
     fill="#9f616a"
     id="path19" />
  <path
     d="M951.12618,392.37438s-10.23782-2.8342-13.64662.58056-23.30239,13.09889-23.30239,13.09889l13.72024,83.57665,59.12607-13.13022,10.1662-79.04851s-16.13328-9.4414-18.8731-7.5544S951.12618,392.37438,951.12618,392.37438Z"
     transform="translate(-124.75 -139.38583)"
     fill="#e6e6e6"
     id="path20" />
  <path
     d="M918.72671,406.61848l-2.73053-1.46134s-10.34746,2.04141-9.77187,10.00173,2.88892,52.31146,2.88892,52.31146l-9.028,80.18478,16.49276,2.82872,16.43157-67.11275Z"
     transform="translate(-124.75 -139.38583)"
     fill="#e6e6e6"
     id="path21" />
  <path
     d="M995.48528,399.15914l2.728-1.46611s10.351,2.0233,9.78935,9.98461-2.79739,52.31644-2.79739,52.31644l9.16822,80.16886-16.48778,2.85757-16.549-67.0839Z"
     transform="translate(-124.75 -139.38583)"
     fill="#e6e6e6"
     id="path22" />
  <path
     d="M928.44363,481.38674l-2.27452,34.68644-7.39219,69.37287,10.804,143.86342,37.52959,1.13726L955.73787,593.40687l11.37261-47.1963,37.17363-1.3768s2.63047-54.34895-18.40884-71.40785Z"
     transform="translate(-124.75 -139.38583)"
     fill="#2f2e41"
     id="path23"
     style="fill:#2f2e41;fill-opacity:1" />
  <polygon
     points="844.635 398.864 838.664 524.247 836.674 587.649 870.223 591.061 878.688 404.602 865.674 391.472 844.635 398.864"
     fill="#2f2e41"
     id="polygon23"
     style="fill:#2f2e41;fill-opacity:1" />
  <path
     d="M963.6987,326.71934s-22.17658-2.84315-28.43151,7.96082c0,0-1.70589,7.96083-7.39219,10.804s1.13726,12.50986,2.84315,15.353,6.25493,19.33343,1.13726,23.31384,9.09808,15.353,9.09808,15.353,6.82356,9.09808,1.13726,15.92164,7.39219,9.09808,7.39219,9.09808-2.84315,19.33343,2.27452,14.21576c0,0,2.27452,43.78452,23.88247,16.49027s30.706-40.37274,21.60794-51.17671-2.27452-20.47068-2.27452-20.47068,2.84315-5.68631-3.41178-14.21576S985.30664,326.71934,963.6987,326.71934Z"
     transform="translate(-124.75 -139.38583)"
     fill="#2f2e41"
     id="path24" />
  <path
     d="M931.57109,726.75064s-22.17657,1.70589-19.90205,9.66671,19.90205,6.82356,19.90205,6.82356,13.64713-1.13726,21.03932,1.13726,15.92164,0,16.49027-3.98041-3.98041-6.82356-3.98041-6.82356l-2.84315-5.6863Z"
     transform="translate(-124.75 -139.38583)"
     fill="#2f2e41"
     id="path25" />
  <polygon
     points="555.214 119.691 522.749 100.132 532.23 136.83 537.945 123.46 547.477 136.242 550.304 134.134 540.772 121.352 555.214 119.691"
     fill="#FDCDD8"
     id="polygon25" />
  <polygon
     points="599.108 119.691 631.573 100.132 622.092 136.83 616.377 123.46 606.845 136.242 604.018 134.134 613.55 121.352 599.108 119.691"
     fill="#3f3d56"
     id="polygon26" />
  <text
     xml:space="preserve"
     style="font-style:normal;font-variant:normal;font-weight:normal;font-stretch:normal;font-size:40px;font-family:Geist;-inkscape-font-specification:'Geist, @wght=700';font-variant-ligatures:normal;font-variant-caps:normal;font-variant-numeric:normal;font-variant-east-asian:normal;font-variation-settings:'wght' 700;letter-spacing:0.565252px;fill:#6a5d7b;stroke:#000000;stroke-width:0.07691;fill-opacity:1"
     x="67.698067"
     y="156.6981"
     id="text26"><tspan
       sodipodi:role="line"
       id="tspan26"
       x="67.698067"
       y="156.6981"
       style="font-style:normal;font-variant:normal;font-weight:normal;font-stretch:normal;font-size:40px;font-family:Geist;-inkscape-font-specification:'Geist, @wght=700';font-variant-ligatures:normal;font-variant-caps:normal;font-variant-numeric:normal;font-variant-east-asian:normal;font-variation-settings:'wght' 700;stroke-width:0.07691;fill:#6a5d7b;fill-opacity:1">dog</tspan></text>
  <text
     xml:space="preserve"
     style="font-style:normal;font-variant:normal;font-weight:normal;font-stretch:normal;font-size:40px;font-family:Geist;-inkscape-font-specification:'Geist, @wght=700';font-variant-ligatures:normal;font-variant-caps:normal;font-variant-numeric:normal;font-variant-east-asian:normal;font-variation-settings:'wght' 700;letter-spacing:0.628137px;fill:#6a5d7b;stroke:#000000;stroke-width:0.0854661;fill-opacity:1"
     x="659.38818"
     y="61.874317"
     id="text27"><tspan
       sodipodi:role="line"
       id="tspan27"
       x="659.38818"
       y="61.874317"
       style="font-style:normal;font-variant:normal;font-weight:normal;font-stretch:normal;font-size:40px;font-family:Geist;-inkscape-font-specification:'Geist, @wght=700';font-variant-ligatures:normal;font-variant-caps:normal;font-variant-numeric:normal;font-variant-east-asian:normal;font-variation-settings:'wght' 700;stroke-width:0.0854661;fill:#6a5d7b;fill-opacity:1">car</tspan></text>
  <text
     xml:space="preserve"
     style="font-style:normal;font-variant:normal;font-weight:normal;font-stretch:normal;font-size:40px;font-family:Geist;-inkscape-font-specification:'Geist, @wght=700';font-variant-ligatures:normal;font-variant-caps:normal;font-variant-numeric:normal;font-variant-east-asian:normal;font-variation-settings:'wght' 700;letter-spacing:0.507659px;fill:#6a5d7b;stroke:#000000;stroke-width:0.0690733;fill-opacity:1"
     x="376.96506"
     y="62.406162"
     id="text28"><tspan
       sodipodi:role="line"
       id="tspan28"
       x="376.96506"
       y="62.406162"
       style="font-style:normal;font-variant:normal;font-weight:normal;font-stretch:normal;font-size:40px;font-family:Geist;-inkscape-font-specification:'Geist, @wght=700';font-variant-ligatures:normal;font-variant-caps:normal;font-variant-numeric:normal;font-variant-east-asian:normal;font-variation-settings:'wght' 700;stroke-width:0.0690733;fill:#6a5d7b;fill-opacity:1">keyboard</tspan></text>
  <text
     xml:space="preserve"
     style="font-style:normal;font-variant:normal;font-weight:normal;font-stretch:normal;font-size:40px;font-family:Geist;-inkscape-font-specification:'Geist, @wght=700';font-variant-ligatures:normal;font-variant-caps:normal;font-variant-numeric:normal;font-variant-east-asian:normal;font-variation-settings:'wght' 700;letter-spacing:0.48305px;fill:#6a5d7b;stroke:#000000;stroke-width:0.0657253;fill-opacity:1"
     x="187.40744"
     y="63.30225"
     id="text29"><tspan
       sodipodi:role="line"
       id="tspan29"
       x="187.40744"
       y="63.30225"
       style="font-style:normal;font-variant:normal;font-weight:normal;font-stretch:normal;font-size:40px;font-family:Geist;-inkscape-font-specification:'Geist, @wght=700';font-variant-ligatures:normal;font-variant-caps:normal;font-variant-numeric:normal;font-variant-east-asian:normal;font-variation-settings:'wght' 700;stroke-width:0.0657253;fill:#6a5d7b;fill-opacity:1">robot</tspan></text>
  <path
     d="M 756.34946,428.98983 H 626.8879 a 6.92409,6.92409 0 0 1 -6.916,-6.91594 V 282.71511 a 6.92409,6.92409 0 0 1 6.916,-6.91594 h 129.46156 a 6.92408,6.92408 0 0 1 6.91594,6.91594 v 139.35878 a 6.92408,6.92408 0 0 1 -6.91594,6.91594 z M 626.8879,278.56555 a 4.1541,4.1541 0 0 0 -4.14957,4.14956 v 139.35878 a 4.1541,4.1541 0 0 0 4.14957,4.14956 h 129.46156 a 4.15411,4.15411 0 0 0 4.14957,-4.14956 V 282.71511 a 4.15411,4.15411 0 0 0 -4.14957,-4.14956 z"
     fill="#e6e6e6"
     id="path1-0-9-5" />
  <path
     d="M 756.94364,624.32281 H 627.48208 a 6.92409,6.92409 0 0 1 -6.916,-6.91594 V 478.04809 a 6.92409,6.92409 0 0 1 6.916,-6.91594 h 129.46156 a 6.92408,6.92408 0 0 1 6.91594,6.91594 v 139.35878 a 6.92408,6.92408 0 0 1 -6.91594,6.91594 z M 627.48208,473.89853 a 4.1541,4.1541 0 0 0 -4.14957,4.14956 v 139.35878 a 4.1541,4.1541 0 0 0 4.14957,4.14956 h 129.46156 a 4.15411,4.15411 0 0 0 4.14957,-4.14956 V 478.04809 a 4.15411,4.15411 0 0 0 -4.14957,-4.14956 z"
     fill="#e6e6e6"
     id="path1-0-9-5-7" />
</svg>
